<svg xmlns="http://www.w3.org/2000/svg" width="150" height="150" fill="none"><path fill="#77BF00" d="M78.044 150c39.74 0 70.593-33.579 68.912-75-1.681-41.421-35.26-75-75-75S1.363 33.579 3.044 75c1.681 41.421 35.26 75 75 75Z"/><path fill="#fff" d="M92.85 42.578c-4.286-2.016-9.363-2.093-16.733-.225l-.115.027-3.57-13.903-7.482 1.91 3.585 13.929c-2.23.592-4.693 1.245-7.106 1.914l-3.583-14.042-7.493 1.9 3.555 14.081c-2.617.776-15.333 3.808-15.333 3.808l1.944 8.186 9.714-2.255 10.464 40.965-9.623 2.247 2.02 8.328s12.734-2.873 15.632-3.466l3.577 14.16 7.482-1.911-3.556-13.945c2.517-.538 5.014-1.199 7.203-1.688l3.479 13.871 7.481-1.91-3.456-13.646c8.197-2.307 13.561-5.505 16.372-9.843a16.09 16.09 0 0 0 1.899-12.774c-2.161-8.553-9.665-11.482-15.427-11.452l-.034-.167c5.435-3.76 7.845-9.557 6.439-15.107-1.152-4.56-3.81-7.538-7.335-8.992Zm-3.235 39.875c1.264 5-1.905 9.708-8.913 11.497l-5.999 1.512-4.231-16.654a29.6 29.6 0 0 1 5.74-1.968c6.688-1.678 11.874-.454 13.403 5.613Zm-5.669-24.295a7.993 7.993 0 0 1-1.962 7.659c-1.528 1.702-3.859 3.053-6.924 3.827l-.042.025-5.965 1.51-4.22-16.662a29.717 29.717 0 0 1 5.736-1.948l.068-.04c3.01-.742 5.698-.903 7.89-.302 2.666.74 4.593 2.619 5.42 5.93Z"/></svg>