<svg xmlns="http://www.w3.org/2000/svg" width="150" height="150" fill="none"><path fill="#F7931A" d="M76.213 150c40.751 0 73.244-33.579 72.574-75-.669-41.421-34.248-75-75-75C33.036 0 .543 33.579 1.213 75c.67 41.421 34.248 75 75 75Z"/><path fill="#fff" d="M106.243 56.384c-2.738-3.937-7.152-6.576-14.561-8.669l-.114-.034 3.908-14-7.529-2.113-3.908 14.03c-2.256-.61-4.746-1.285-7.2-1.92l3.967-14.129-7.534-2.128-4.012 14.15c-2.688-.645-15.374-4.424-15.374-4.424l-2.44 8.163 9.661 2.94-11.565 41.224-9.577-2.902L37.52 94.9s12.622 3.928 15.463 4.875l-4.031 14.229 7.528 2.113 3.943-14.031c2.48.804 5.004 1.488 7.17 2.168l-3.972 13.926 7.529 2.112 3.878-13.717c8.357 2.127 14.68 2.038 19.342-.342a16.312 16.312 0 0 0 8.133-10.242c2.435-8.594-2.663-14.962-7.731-17.854l.054-.163c6.671-.546 11.719-4.41 13.296-9.989 1.3-4.582.476-8.54-1.879-11.6ZM83.216 89.717c-1.423 5.023-6.586 7.548-13.638 5.57l-6.026-1.712 4.721-16.748c2.046.186 4.067.582 6.031 1.18 6.715 1.915 10.643 5.614 8.912 11.71Zm7.33-24.177a8.094 8.094 0 0 1-5.6 5.723c-2.201.719-4.929.724-8.008-.15h-.05l-5.996-1.695 4.736-16.748c2.04.192 4.057.593 6.016 1.195h.08c3.015.873 5.455 2.093 7.071 3.73 1.964 1.998 2.703 4.622 1.751 7.945Z"/></svg>