<svg xmlns="http://www.w3.org/2000/svg" width="150" height="150" fill="none"><path fill="#3E7DDD" d="M150 75c0-41.421-33.579-75-75-75S0 33.579 0 75s33.579 75 75 75 75-33.579 75-75Z"/><path fill="#C0CCF7" d="M104.53 72.83 74.925 57.063V13.76l.145-.282 29.46 59.353Z"/><path fill="#A6B9FF" d="m104.929 73.639-29.86 21.026-.144-.102v-37.5L104.53 72.83l.399.808Z"/><path fill="#fff" d="M74.927 13.76v43.302L45.064 73.379l29.863-59.62Z"/><path fill="#C0CCF7" d="m104.53 81.177-29.605 21.427v28.868l.145.282 29.46-50.577Z"/><path fill="#fff" d="M74.927 131.472v-28.868L45.064 80.627l29.863 50.845Z"/><path fill="#C0CCF7" d="M74.924 57.063v37.5L44.928 73.639l.133-.259 29.863-16.317Z"/></svg>