<svg xmlns="http://www.w3.org/2000/svg" width="150" height="150" fill="none"><path fill="#907EFF" d="M75 150c41.421 0 75-33.579 75-75S116.421 0 75 0 0 33.579 0 75s33.579 75 75 75Z"/><path fill="#fff" d="M98.104 82.74a17.5 17.5 0 0 0-4.994-.453 6.357 6.357 0 0 1-3.467-.86 6.025 6.025 0 0 1-2.388-2.567l-.514-1.03a5.83 5.83 0 0 1 .478-5.981l1.054-1.486a6.062 6.062 0 0 1 2.262-1.956c.912-.46 1.93-.69 2.958-.67 1.43.04 2.859-.091 4.254-.395 7.418-1.594 13.057-7.756 13.628-15.053.199-2.499-.188-5.01-1.132-7.345a16.72 16.72 0 0 0-4.322-6.151 17.543 17.543 0 0 0-6.659-3.746 18.027 18.027 0 0 0-7.687-.604c-7.105.941-13.93 7.653-14.78 14.511-.499 3.865.425 7.775 2.61 11.053 1.39 2.084 1.424 4.746-.075 6.759l-1.358 1.827a6.205 6.205 0 0 1-2.263 1.87c-.9.439-1.897.662-2.905.65a6.386 6.386 0 0 1-3.252-.93 6.062 6.062 0 0 1-2.259-2.437c-1.698-3.393-4.536-6.135-8.054-7.782a17.977 17.977 0 0 0-11.33-1.291c-3.821.81-7.245 2.838-9.72 5.756-2.473 2.917-3.852 6.554-3.912 10.32-.06 3.766 1.202 7.44 3.581 10.43 2.38 2.99 5.738 5.118 9.53 6.041a17.99 17.99 0 0 0 11.367-.955c3.57-1.542 6.493-4.199 8.299-7.54a6.02 6.02 0 0 1 2.286-2.286 6.325 6.325 0 0 1 3.183-.819h.615c.996 0 1.978.23 2.864.668a6.189 6.189 0 0 1 2.227 1.858l.95 1.282c1.486 2.006 1.468 4.647.115 6.74a16.196 16.196 0 0 0-2.476 10.97c.882 6.816 7.714 13.481 14.77 14.417 2.578.354 5.207.146 7.69-.609a17.532 17.532 0 0 0 6.659-3.753 16.715 16.715 0 0 0 4.316-6.158 16.172 16.172 0 0 0 1.122-7.35c-.571-7.164-6.027-13.23-13.271-14.945Z"/></svg>